<svg xmlns="http://www.w3.org/2000/svg" width="426.286" height="394.956" viewBox="0 0 426.286 394.956"><g transform="translate(-0.178 0.436)"><path d="M100.772,503.342l.589-.342h-1.178Z" transform="translate(-15.39 -108.822)"/><path d="M201.477,503.342l.589-.342h-1.179Z" transform="translate(-30.888 -108.822)"/><path d="M213.453,393.3l42.6,24.709,42.6-24.709,42.6,24.709,42.6-24.709,42.6,24.706v17.525l-42.6-24.706-42.6,24.711-42.6-24.71-42.6,24.71-42.6-24.71h-.264l-42.6,24.71-42.6-24.71-42.6,24.71-42.6-24.711L.178,435.536V418.011l42.6-24.706,42.6,24.709,42.6-24.709,42.6,24.709,42.6-24.709Z" transform="translate(0 -85.11)"/><path d="M213.453,449.553l42.6,24.709,42.6-24.709,42.6,24.709,42.6-24.709,42.6,24.706v17.188h-.582l-42.019-24.369-42.013,24.369h-1.177l-42.017-24.368-42.013,24.368h-1.179l-42.012-24.368h-.264l-42.012,24.368H170l-42.013-24.368L85.97,491.447H84.793L42.779,467.078.759,491.447H.178V474.259l42.6-24.706,42.6,24.709,42.6-24.709,42.6,24.709,42.6-24.709Z" transform="translate(0 -97.269)"/><path d="M213.453,280.808l42.6,24.71,42.6-24.709,42.6,24.709,42.6-24.709,42.6,24.705V323.04l-42.6-24.707-42.6,24.711-42.6-24.71-42.6,24.71-42.6-24.71h-.264l-42.6,24.71-42.6-24.71-42.6,24.71-42.6-24.711L.178,323.04V305.514l42.6-24.705,42.6,24.709,42.6-24.709,42.6,24.709,42.6-24.71Z" transform="translate(0 -60.793)"/><path d="M213.453,337.056l42.6,24.71,42.6-24.709,42.6,24.709,42.6-24.709,42.6,24.705v17.526l-42.6-24.707-42.6,24.711-42.6-24.71-42.6,24.71-42.6-24.71h-.264l-42.6,24.71-42.6-24.71-42.6,24.71-42.6-24.711L.178,379.288V361.762l42.6-24.705,42.6,24.709,42.6-24.709,42.6,24.709,42.6-24.71Z" transform="translate(0 -72.952)"/><path d="M213.453,168.311l42.6,24.709,42.6-24.709,42.6,24.709,42.6-24.708,42.6,24.7v17.525l-42.6-24.705-42.6,24.71-42.6-24.709-42.6,24.709-42.6-24.709h-.264l-42.6,24.709-42.6-24.709-42.6,24.709-42.6-24.71L.178,210.541V193.016l42.6-24.7,42.6,24.708,42.6-24.709,42.6,24.709,42.6-24.709Z" transform="translate(0 -36.476)"/><path d="M213.453,224.559l42.6,24.709,42.6-24.709,42.6,24.71,42.6-24.71,42.6,24.706V266.79l-42.6-24.705-42.6,24.709-42.6-24.709-42.6,24.709-42.6-24.709h-.264l-42.6,24.709-42.6-24.709-42.6,24.709-42.6-24.709L.178,266.79V249.265l42.6-24.706,42.6,24.71,42.6-24.71,42.6,24.709,42.6-24.709Z" transform="translate(0 -48.634)"/><path d="M213.453,55.813l42.6,24.71,42.6-24.71,42.6,24.71,42.6-24.709,42.6,24.705V98.043l-42.6-24.7-42.6,24.71-42.6-24.709-42.6,24.709-42.6-24.709h-.264l-42.6,24.709-42.6-24.709-42.6,24.709-42.6-24.71-42.6,24.7V80.519l42.6-24.705,42.6,24.709,42.6-24.71,42.6,24.71,42.6-24.71Z" transform="translate(0 -12.159)"/><path d="M213.453-.436l42.6,24.71,42.6-24.71,42.6,24.71,42.6-24.709,42.6,24.705V41.794l-42.6-24.7-42.6,24.71-42.6-24.709L256.054,41.8l-42.6-24.709h-.264L170.589,41.8l-42.6-24.709L85.382,41.8l-42.6-24.71-42.6,24.7V24.27L42.779-.435l42.6,24.709,42.6-24.71,42.6,24.71,42.6-24.71Z" transform="translate(0 0)"/><path d="M213.453,112.062l42.6,24.709,42.6-24.709,42.6,24.709,42.6-24.709,42.6,24.705v17.525l-42.6-24.705-42.6,24.71-42.6-24.709-42.6,24.709-42.6-24.709h-.264l-42.6,24.709-42.6-24.709L85.382,154.3l-42.6-24.71L.178,154.292V136.767l42.6-24.705,42.6,24.709,42.6-24.709,42.6,24.709,42.6-24.709Z" transform="translate(0 -24.317)"/></g></svg>