<svg xmlns="http://www.w3.org/2000/svg" width="568.286" height="426.102" viewBox="0 0 568.286 426.102">
  <g id="patternhero-lines-2" transform="translate(-0.178 0.436)">
    <path id="Path_1" data-name="Path 1" d="M100.772,503.342l.589-.342h-1.178Z" transform="translate(12.874 -77.675)"/>
    <path id="Path_2" data-name="Path 2" d="M201.477,503.342l.589-.342h-1.179Z" transform="translate(25.838 -77.675)"/>
    <path id="Path_3" data-name="Path 3" d="M284.5,393.3l56.791,24.709L398.081,393.3l56.8,24.709L511.672,393.3l56.792,24.706v17.525L511.672,410.83l-56.793,24.711-56.8-24.71-56.793,24.71L284.5,410.831h-.352l-56.791,24.71-56.795-24.71-56.8,24.71L56.969,410.83.178,435.536V418.011L56.969,393.3l56.795,24.709,56.8-24.709,56.795,24.709L284.145,393.3Z" transform="translate(0 -53.964)"/>
    <path id="Path_4" data-name="Path 4" d="M284.5,449.553l56.791,24.709,56.793-24.709,56.8,24.709,56.793-24.709,56.792,24.706v17.188h-.776l-56.016-24.369-56.008,24.369h-1.569l-56.013-24.368-56.007,24.368H340.5L284.5,467.079h-.352l-56.006,24.368h-1.571l-56.008-24.368-56.011,24.368h-1.57L56.969,467.078.953,491.447H.178V474.259l56.791-24.706,56.795,24.709,56.8-24.709,56.795,24.709,56.791-24.709Z" transform="translate(0 -66.122)"/>
    <path id="Path_5" data-name="Path 5" d="M284.5,280.808l56.791,24.71,56.793-24.709,56.8,24.709,56.793-24.709,56.792,24.705V323.04l-56.792-24.707-56.793,24.711-56.8-24.71-56.793,24.71L284.5,298.334h-.352l-56.791,24.71-56.795-24.71-56.8,24.71L56.969,298.333.178,323.04V305.514l56.791-24.705,56.795,24.709,56.8-24.709,56.795,24.709,56.791-24.71Z" transform="translate(0 -41.327)"/>
    <path id="Path_6" data-name="Path 6" d="M284.5,337.056l56.791,24.71,56.793-24.709,56.8,24.709,56.793-24.709,56.792,24.705v17.526l-56.792-24.707-56.793,24.711-56.8-24.71-56.793,24.71L284.5,354.582h-.352l-56.791,24.71-56.795-24.71-56.8,24.71L56.969,354.581.178,379.288V361.762l56.791-24.705,56.795,24.709,56.8-24.709,56.795,24.709,56.791-24.71Z" transform="translate(0 -49.592)"/>
    <path id="Path_7" data-name="Path 7" d="M284.5,168.311l56.791,24.709,56.793-24.709,56.8,24.709,56.793-24.708,56.792,24.7v17.525l-56.792-24.705-56.793,24.71-56.8-24.709-56.793,24.709L284.5,185.837h-.352l-56.791,24.709-56.795-24.709-56.8,24.709-56.795-24.71L.178,210.541V193.016l56.791-24.7,56.795,24.708,56.8-24.709,56.795,24.709,56.791-24.709Z" transform="translate(0 -24.796)"/>
    <path id="Path_8" data-name="Path 8" d="M284.5,224.559l56.791,24.709,56.793-24.709,56.8,24.71,56.793-24.71,56.792,24.706V266.79l-56.792-24.705-56.793,24.709-56.8-24.709-56.793,24.709L284.5,242.085h-.352l-56.791,24.709-56.795-24.709-56.8,24.709L56.969,242.085.178,266.79V249.265l56.791-24.706,56.795,24.71,56.8-24.71,56.795,24.709,56.791-24.709Z" transform="translate(0 -33.061)"/>
    <path id="Path_9" data-name="Path 9" d="M284.5,55.813l56.791,24.71,56.793-24.71,56.8,24.71,56.793-24.709,56.792,24.705V98.043l-56.792-24.7-56.793,24.71-56.8-24.709L341.288,98.049,284.5,73.34h-.352L227.354,98.049,170.559,73.34l-56.8,24.709L56.969,73.339.178,98.043V80.519L56.969,55.814l56.795,24.709,56.8-24.71,56.795,24.71,56.791-24.71Z" transform="translate(0 -12.159)"/>
    <path id="Path_10" data-name="Path 10" d="M284.5-.436l56.791,24.71L398.081-.436l56.8,24.71L511.672-.435,568.464,24.27V41.794l-56.792-24.7L454.878,41.8l-56.8-24.709L341.288,41.8,284.5,17.091h-.352L227.354,41.8,170.559,17.091,113.764,41.8,56.969,17.09.178,41.794V24.27L56.969-.435l56.795,24.709,56.8-24.71,56.795,24.71L284.145-.436Z" transform="translate(0 0)"/>
    <path id="Path_11" data-name="Path 11" d="M284.5,112.062l56.791,24.709,56.793-24.709,56.8,24.709,56.793-24.709,56.792,24.705v17.525l-56.792-24.705L454.878,154.3l-56.8-24.709L341.288,154.3,284.5,129.588h-.352L227.354,154.3l-56.795-24.709-56.8,24.709-56.795-24.71L.178,154.292V136.767l56.791-24.705,56.795,24.709,56.8-24.709,56.795,24.709,56.791-24.709Z" transform="translate(0 -16.531)"/>
  </g>
</svg>
