<svg xmlns="http://www.w3.org/2000/svg" width="755.993" height="755.992" viewBox="0 0 755.993 755.992"><path d="M410.479,440.116l30.712-39.571,13.145,10.184L423.626,450.3Zm-70.136-.148-13.585,9.748,29.235,40.753,13.585-9.745ZM481.8,532.7l-15.946-5.02-15.212,47.7,15.946,5.02ZM304.02,415.457l-20.966,45.478,15.209,6.94,20.818-45.33Zm69.842-82.243,46.511-18.753-6.349-15.5-46.511,18.753Zm120.633-3.4-16.536,2.364,7.381,49.61,16.539-2.362Zm-40.311-51.236-45.92-20.229-6.792,15.357,45.921,20.229Zm-113.247-110-16.1,47.393,15.8,5.463L356.881,173.9Zm63.64,75.45-.74-16.685-49.91,1.769.74,16.685Zm-107.2-3.839,12.847-10.779-32.042-38.536L265.34,201.658ZM499.224,418.414l-32.041-38.539L454.33,390.647l32.041,38.539Zm-84.463,40.75-15.651-5.612-16.98,47.1,15.651,5.609Zm21.265-131.118-16.981,47.1L434.7,380.76l16.981-47.1ZM270.5,441.3,252.341,394.49l-15.5,6.057L255,447.35ZM193.131,311.654l15.651,5.612,16.98-47.1-15.651-5.611Zm84.606,79.586,15.208-47.692L277,338.528,261.791,386.22Zm-80.321-2.358,48.724-11.518L242.3,361.122l-48.874,11.663ZM431.3,550.115l-48.874,11.665,3.84,16.242L434.994,566.5ZM443.115,481.9l-16.536,2.364,7.088,49.612,16.536-2.362ZM459.5,630.3l-18.161-46.8-15.5,6.054L444,636.349ZM390.107,404.684l-49.91,4.13,1.328,16.687,50.058-4.278Zm-50.94-51.532L322.63,350.79l-6.949,49.454,16.536,2.364Zm-37.947-10.483h16.833v-50.2l-16.981.148Zm-56.551,2.216,16.537-2.364-7.383-49.61-16.537,2.362ZM354.82,368.8l44,24.214,8.121-14.616-44.01-24.224ZM342.558,529.3l48.726,11.811,3.839-16.241L346.545,513.2ZM542.93,418.119l.74,16.685,50.055-1.919-.739-16.685ZM340.348,61.977l-13.585,9.746L356,112.477l13.585-9.746Zm299.3,324.4,15.946,5.022L670.8,343.7l-15.947-5.02Zm77.666-33.369-16.537-2.362-7.088,49.612,16.537,2.362ZM401.621,651.854l45.921,19.934,6.792-15.357L408.413,636.2Zm189-189,45.921,20.229,6.792-15.357L597.411,447.5ZM346.1,313.43l38.536-32.042-10.777-12.845-38.537,32.041Zm13.583,424.357L378,756.1l10.041-10.041-25.1-13.879ZM202.583,232.22l-1.33-16.685-42.229,3.543-7.235,7.235.886,10.041ZM341.669,47.352l49.91-4.13-1.328-16.685-42.229,3.544-7.237,7.236ZM543.812,557.8l20.967,11.517,12.255-12.255-25.1-13.879ZM139.24,439.97l-50.06,4.278,1.48,16.54,49.91-4.13ZM63.2,400.545,45.331,423.431,57.29,435.392l19.049-24.658ZM353.925,607.117l.74,16.685,50.055-1.919-.74-16.685ZM212.769,462.705l45.773,20.081,6.792-15.355L219.413,447.5ZM151.943,357.579l-16.1,47.4,15.8,5.463,16.241-47.545Zm63.639,75.452-.74-16.685-49.916,1.773.74,16.685Zm90.075,85.93-16.537,2.362,7.236,49.464,16.536-2.362Zm35.281,27.613-16.1,47.4,15.8,5.463,16.241-47.544Zm-15.653-62.311-50.057,4.278,1.328,16.685,50.058-4.278Zm48.578,226.948,46.511-18.753-6.349-15.5-46.51,18.753ZM225.173,488.1l-46.51,18.752,6.349,15.5,46.511-18.75Zm21.856,28.942-16.981,47.1,15.65,5.611,16.981-47.1Zm63.047,90.513-32.041-38.539-12.851,10.775,32.187,38.389ZM108.378,429.19l12.847-10.777-32.038-38.54-12.849,10.78Zm48.727,73.237,38.537-32.041L184.865,457.54,146.327,489.58Zm463.04-141.153-48.726,11.517,3.839,16.241,48.724-11.517ZM737.678,359.8l-4.868,9.012,20.967,11.517,2.216-2.216Zm-55.666,55.666L661.046,460.94l8.415,3.985,15.357-15.355,12.551-27.022Zm36.323-6.792.592,6.5,7.235-7.235ZM41.05,375.145,56.7,380.757l16.981-47.1-15.651-5.612Zm581.608-30.274,16.537-2.362L631.811,292.9l-16.537,2.364ZM579.1,215.376l-49.91,4.13,1.328,16.687L580.57,232.2ZM373.864,646.539,335.326,678.58l10.779,12.845,38.537-32.041Zm-45.775-17.426-49.91,4.132,1.327,16.684,50.058-4.278Zm-75.9-39.571-17.867,22.886,11.961,11.959,19.047-24.658Zm-34.551-22.148-43.708-24.218-3.1,5.763,26.282,26.281,12.4,6.794ZM511.771,161.639l-7.092,49.608,16.537,2.364L528.3,164ZM528.31,542l-16.537-2.364-7.088,49.612,16.537,2.364ZM492.871,604.6l-20.966,45.476,8.415,3.986,15.357-15.355,12.4-27.17ZM695.75,342.663V317.857l-16.687-16.685,0,41.347ZM128.9,481.609H112.07v8.563L128.9,507Zm189,189H301.069v8.563l16.684,16.685ZM7.973,386.074l12.551,6.94L28.644,378.4l-18.6-10.336L0,378.1Zm591.5-134.955L612.623,261.3l11.665-14.913-11.962-11.962Zm-189-189,13.145,10.186L435.29,57.392,423.33,45.432ZM117.533,260.569l-15.354,15.355,6.649,3.1ZM433.664,155.882,450.2,153.52l-7.381-49.612-16.539,2.364ZM506.9,153.52V128.714L490.216,112.03v41.636Zm-297.377,50.5,8.121-14.616-18.6-10.339-12.255,12.255ZM548.686,170.8l-4.868,9.011,31.156,17.274ZM378,.1l-2.361,2.362,10.335,5.609ZM306.531,71.569,291.174,86.927l6.65,3.1ZM529.2,597.811l.59,6.5,7.235-7.235ZM431.3,172.122l-48.874,11.665,3.837,16.241L434.99,188.51ZM459.5,252.3,441.34,205.491l-15.5,6.057L444,258.353Zm54.634,43.115-49.91,4.132,1.328,16.685,50.057-4.278Zm-27.17-16.239L507.933,233.7l-15.2-6.943L471.76,272.229Zm101-14.471-16.98,47.1,15.651,5.612,17.128-47.251Zm-7.677,87.707,3.84-16.241L535.4,324.355,531.557,340.6Zm68.364,89.035-18.16-46.807-15.508,6.052,18.166,46.81ZM490.216,481.755v50.208h16.833v-50.2Zm27.02-41.492-49.91,4.13,1.33,16.687,49.906-4.426ZM107.346,381.792l16.537-2.362L116.5,329.818l-16.536,2.364Zm422.588-24.214-16.095,47.4,15.8,5.464,16.242-47.544Zm32.928,99.963-38.539,32.042L535.1,502.428l38.537-32.041Zm40.161,30.712L556.512,507l6.349,15.5,46.511-18.75ZM221.481,251.119,234.626,261.3l30.712-39.571-13.144-10.186Zm8.564-64.969,15.651,5.611,16.981-47.1-15.651-5.609Zm-78.7,64.819-13.585,9.748,29.383,40.6,13.585-9.743Zm128.313,20.818,49.912-4.13-1.328-16.685-50.058,4.278Zm265.48,29.526,13.585-9.745-29.236-40.752L515.9,260.563ZM87.708,316.087l49.91-4.13L136.29,295.27l-50.06,4.279ZM153.561,340.3l48.578,11.959,3.84-16.241-48.431-11.814ZM466,149.535,450.79,197.227l15.946,5.019,15.209-47.692ZM399.11,75.559l-16.985,47.1,15.651,5.611,16.98-47.1ZM276.7,127.088l49.91-4.13-1.328-16.685-50.058,4.278ZM296.343,192.8l16.537-2.362L305.5,140.821l-16.537,2.364ZM342.558,151.3l48.726,11.813,3.84-16.241-48.578-11.665Z" transform="translate(0 -0.105)"/></svg>