<svg xmlns="http://www.w3.org/2000/svg" width="274.897" height="274.877" viewBox="0 0 274.897 274.877"><path d="M207.826,285.5l68.719-68.719V285.5Zm-68.719,0,68.719-68.719V285.5Zm-68.719,0,68.719-68.719V285.5Zm-68.719,0,68.719-68.719V285.5Zm206.168-68.719,68.719-68.719v68.719Zm-68.719,0,68.719-68.719v68.719Zm-68.719,0,68.719-68.719v68.719Zm-1.556,0,1.553-1.544v1.544Zm139-68.719,68.719-68.719v68.719Zm-68.719,0,68.719-68.719v68.719Zm-1.167,0,1.164-1.157v1.157Zm69.89-68.719,68.719-68.719V79.343Zm-.782,0,.779-.775v.775Z" transform="translate(276.565 285.501) rotate(-180)"/></svg>