<svg xmlns="http://www.w3.org/2000/svg" width="516.643" height="748.644" viewBox="0 0 516.643 748.644"><g transform="translate(-1323.176 -246.176)"><path d="M516.64,516.64c-15.337,0-23.208-4.44-30.676-8.678s-13.521-7.468-26.64-7.468-19.777,3.634-26.634,7.468-15.337,8.678-30.676,8.678-23.208-4.44-30.676-8.678S357.814,500.5,344.7,500.5s-19.777,3.63-26.639,7.468-15.337,8.678-30.676,8.678-23.208-4.44-30.676-8.678S243.189,500.5,230.07,500.5s-19.777,3.63-26.64,7.468-15.741,8.678-31.281,8.678-23.208-4.44-30.676-8.678-13.322-7.468-26.641-7.468-19.777,3.63-26.639,7.468-15.337,8.678-30.878,8.678-23.208-4.44-30.676-8.678S13.32,500.5,0,500.5v-8.073c15.337,0,23.208,4.44,30.676,8.678s13.521,7.468,26.639,7.468,19.777-3.63,26.639-7.468,15.337-8.678,30.676-8.678,23.208,4.44,30.676,8.678,13.521,7.468,26.639,7.468,19.777-3.63,26.639-7.468,15.337-8.678,30.676-8.678,23.208,4.44,30.676,8.678,13.521,7.468,26.639,7.468,19.777-3.63,26.639-7.468,15.337-8.678,30.676-8.678,23.208,4.44,30.676,8.678,13.521,7.468,26.639,7.468,19.777-3.63,26.639-7.468,15.337-8.678,30.676-8.678,23.208,4.44,30.676,8.678,13.521,7.468,26.639,7.468Zm0-32.9c-15.337,0-23.208-4.44-30.676-8.678s-13.521-7.468-26.64-7.468-19.777,3.63-26.639,7.468-15.337,8.678-30.676,8.678-23.208-4.44-30.676-8.678-13.521-7.468-26.639-7.468-19.777,3.63-26.639,7.468-15.337,8.678-30.676,8.678-23.208-4.44-30.676-8.678-13.521-7.468-26.639-7.468-19.777,3.63-26.639,7.468-15.337,8.678-30.676,8.678-23.208-4.44-30.676-8.678-13.521-7.468-26.639-7.468-19.777,3.63-26.639,7.468-15.337,8.678-30.676,8.678-23.2-4.445-30.673-8.677S13.32,467.6,0,467.6v-8.073c15.337,0,23.208,4.44,30.676,8.678s13.521,7.468,26.639,7.468,19.777-3.63,26.64-7.468,15.337-8.678,30.676-8.678,23.208,4.44,30.676,8.678,13.521,7.468,26.639,7.468,19.777-3.63,26.639-7.468,15.337-8.678,30.676-8.678,23.208,4.44,30.676,8.678,13.521,7.468,26.639,7.468,19.777-3.63,26.639-7.468,15.337-8.678,30.676-8.678,23.208,4.44,30.676,8.678,13.521,7.468,26.64,7.468,19.777-3.63,26.639-7.468,15.337-8.678,30.676-8.678,23.208,4.44,30.676,8.678,13.521,7.468,26.639,7.468Zm0-32.9c-15.337,0-23.208-4.44-30.676-8.678s-13.521-7.468-26.64-7.468-19.777,3.63-26.639,7.468-15.337,8.678-30.676,8.678-23.208-4.44-30.676-8.678-13.521-7.468-26.639-7.468-19.777,3.63-26.639,7.468-15.337,8.678-30.676,8.678-23.208-4.44-30.676-8.678-13.521-7.468-26.639-7.468-19.777,3.63-26.639,7.468-15.337,8.678-30.676,8.678-23.208-4.44-30.676-8.678-13.521-7.468-26.639-7.468-19.777,3.63-26.639,7.468-15.337,8.678-30.676,8.678-23.208-4.44-30.676-8.678S13.314,434.909,0,434.909v-8.073c15.337,0,23.208,4.44,30.676,8.678s13.521,7.468,26.639,7.468,19.777-3.63,26.64-7.468,15.337-8.678,30.676-8.678,23.208,4.44,30.676,8.678,13.521,7.468,26.639,7.468,19.777-3.63,26.64-7.468,15.337-8.678,30.676-8.678,23.208,4.44,30.676,8.678,13.521,7.468,26.639,7.468,19.777-3.63,26.639-7.468,15.337-8.678,30.676-8.678,23.208,4.44,30.676,8.678,13.521,7.468,26.64,7.468,19.777-3.63,26.639-7.468,15.337-8.678,30.676-8.678,23.208,4.44,30.676,8.678,13.521,7.468,26.639,7.468Zm0-32.9c-15.337,0-23.208-4.44-30.676-8.678s-13.521-7.468-26.64-7.468-19.777,3.63-26.639,7.468-15.337,8.678-30.676,8.678-23.208-4.44-30.676-8.678-13.521-7.468-26.639-7.468-19.777,3.63-26.639,7.468-15.337,8.678-30.676,8.678-23.208-4.44-30.676-8.678-13.521-7.468-26.639-7.468-19.777,3.63-26.639,7.468-15.337,8.678-30.676,8.678-23.208-4.44-30.676-8.678-13.521-7.468-26.639-7.468-19.777,3.63-26.639,7.468-15.337,8.678-30.676,8.678-23.812-4.238-31.483-8.477S13.32,402.01,0,402.01v-8.073c15.337,0,23.208,4.44,30.676,8.678s13.521,7.468,26.639,7.468,19.777-3.63,26.639-7.468,15.337-8.678,30.676-8.678,23.208,4.44,30.676,8.678,13.521,7.468,26.639,7.468,19.777-3.63,26.639-7.468,15.337-8.678,30.676-8.678,23.208,4.44,30.676,8.678,13.521,7.468,26.639,7.468,19.777-3.63,26.639-7.468,15.337-8.678,30.676-8.678,23.208,4.44,30.676,8.678,13.521,7.468,26.639,7.468,19.777-3.63,26.639-7.468,15.337-8.678,30.676-8.678,23.208,4.44,30.676,8.678,13.521,7.468,26.639,7.468Zm0-32.9c-15.337,0-23.208-4.44-30.676-8.678s-13.521-7.468-26.64-7.468-19.777,3.63-26.639,7.468-15.337,8.678-30.676,8.678-23.208-4.44-30.676-8.678-13.521-7.468-26.639-7.468-19.777,3.63-26.639,7.468-15.337,8.678-30.676,8.678-23.208-4.44-30.676-8.678-13.521-7.468-26.639-7.468-19.777,3.63-26.639,7.468-15.337,8.678-30.676,8.678-23.208-4.44-30.676-8.678-13.521-7.468-26.639-7.468-19.777,3.63-26.639,7.468-15.337,8.678-30.676,8.678-23.208-4.44-30.676-8.678S13.314,369.117,0,369.117v-8.073c15.337,0,23.208,4.44,30.676,8.678s13.521,7.468,26.639,7.468,19.777-3.63,26.64-7.468,15.337-8.679,30.676-8.679,23.208,4.44,30.676,8.679,13.521,7.468,26.639,7.468,19.777-3.63,26.64-7.468,15.337-8.679,30.676-8.679,23.208,4.44,30.676,8.679,13.521,7.468,26.639,7.468,19.777-3.63,26.639-7.468,15.337-8.679,30.676-8.679,23.208,4.44,30.676,8.679,13.521,7.468,26.64,7.468,19.777-3.63,26.639-7.468,15.337-8.679,30.676-8.679,23.208,4.44,30.676,8.679,13.521,7.468,26.639,7.468Zm0-32.9c-15.337,0-23.208-4.44-30.676-8.678s-13.521-7.468-26.64-7.468-19.777,3.63-26.639,7.468-15.337,8.678-30.676,8.678-23.208-4.44-30.676-8.678-13.521-7.468-26.639-7.468-19.777,3.63-26.639,7.468-15.337,8.678-30.676,8.678-23.208-4.44-30.676-8.678-13.521-7.468-26.639-7.468-19.777,3.63-26.639,7.468-15.337,8.678-30.676,8.678-23.208-4.44-30.676-8.678-13.516-7.463-26.638-7.463-19.777,3.63-26.639,7.468-15.337,8.678-30.676,8.678-23.208-4.44-30.676-8.678S13.32,336.424,0,336.424v-8.073c15.337,0,23.208,4.44,30.676,8.679S44.2,344.5,57.316,344.5s19.777-3.63,26.639-7.468,15.337-8.679,30.676-8.679,23.208,4.44,30.676,8.679,13.521,7.468,26.639,7.468,19.777-3.63,26.639-7.468,15.337-8.679,30.676-8.679,23.208,4.44,30.676,8.679,13.521,7.468,26.639,7.468,19.777-3.63,26.639-7.468,15.337-8.679,30.676-8.679,23.208,4.44,30.676,8.679,13.521,7.468,26.639,7.468,19.777-3.63,26.639-7.468,15.337-8.679,30.676-8.679,23.208,4.44,30.676,8.679,13.521,7.468,26.639,7.468Zm0-32.9c-15.337,0-23.208-4.44-30.676-8.678s-13.521-7.468-26.64-7.468-19.777,3.63-26.639,7.468-15.337,8.678-30.676,8.678-23.208-4.44-30.676-8.678-13.521-7.468-26.639-7.468-19.777,3.63-26.639,7.468-15.337,8.678-30.676,8.678-23.208-4.44-30.676-8.678-13.521-7.468-26.639-7.468-19.777,3.63-26.639,7.468-15.337,8.678-30.676,8.678-23.208-4.44-30.676-8.678-13.521-7.468-26.639-7.468-19.777,3.63-26.639,7.468-15.337,8.678-30.676,8.678-23.208-4.44-30.676-8.678S13.32,303.525,0,303.525v-8.073c15.337,0,23.208,4.44,30.676,8.678S44.2,311.6,57.316,311.6s19.777-3.63,26.639-7.468,15.337-8.678,30.676-8.678,23.208,4.44,30.676,8.678,13.521,7.468,26.639,7.468,19.777-3.63,26.639-7.468,15.337-8.678,30.676-8.678,23.208,4.44,30.676,8.678,13.521,7.468,26.639,7.468,19.777-3.63,26.639-7.468,15.337-8.678,30.676-8.678,23.208,4.44,30.676,8.678,13.521,7.468,26.639,7.468,19.777-3.63,26.639-7.468,15.337-8.678,30.676-8.678,23.208,4.44,30.676,8.678,13.521,7.468,26.639,7.468Zm0-32.9c-15.337,0-23.208-4.44-30.676-8.678s-13.521-7.468-26.64-7.468-19.777,3.63-26.639,7.468-15.337,8.678-30.676,8.678-23.208-4.44-30.676-8.678-13.521-7.468-26.639-7.468-19.777,3.63-26.639,7.468-15.337,8.678-30.676,8.678-23.208-4.44-30.676-8.678-13.521-7.468-26.639-7.468-19.777,3.63-26.639,7.468-15.337,8.678-30.676,8.678-23.208-4.44-30.676-8.678-13.521-7.468-26.639-7.468-19.777,3.63-26.639,7.468-15.337,8.678-30.676,8.678-23.812-3.835-31.483-8.073S13.32,270.63,0,270.63v-8.073c15.337,0,23.208,4.44,30.676,8.678S44.2,278.7,57.316,278.7s19.777-3.63,26.639-7.468,15.337-8.678,30.676-8.678,23.208,4.44,30.676,8.678,13.521,7.468,26.639,7.468,19.777-3.63,26.639-7.468,15.337-8.678,30.676-8.678,23.208,4.44,30.676,8.678,13.521,7.468,26.639,7.468,19.777-3.63,26.639-7.468,15.337-8.678,30.676-8.678S367.1,267,374.57,271.236s13.521,7.468,26.639,7.468,19.777-3.63,26.639-7.468,15.337-8.678,30.676-8.678,23.208,4.44,30.676,8.678,13.521,7.468,26.639,7.468Zm0-32.9c-15.337,0-23.208-4.44-30.676-8.678s-13.521-7.468-26.64-7.468-19.777,3.63-26.639,7.468-15.337,8.678-30.676,8.678-23.208-4.44-30.676-8.678-13.521-7.468-26.639-7.468-19.777,3.63-26.639,7.468-15.337,8.678-30.676,8.678-23.208-4.44-30.676-8.678-13.521-7.468-26.639-7.468-19.777,3.63-26.639,7.468-15.337,8.678-30.676,8.678-23.208-4.44-30.676-8.678-13.521-7.468-26.639-7.468-19.777,3.63-26.639,7.468-15.337,8.678-30.676,8.678-23.2-4.434-30.673-8.667S13.32,237.936,0,237.936v-8.073c15.337,0,23.208,4.44,30.676,8.678s13.521,7.468,26.639,7.468,19.777-3.63,26.64-7.468,15.337-8.678,30.676-8.678,23.208,4.44,30.676,8.678,13.521,7.468,26.639,7.468,19.777-3.63,26.639-7.468,15.337-8.678,30.676-8.678,23.208,4.44,30.676,8.678,13.521,7.468,26.639,7.468,19.777-3.63,26.639-7.468,15.337-8.678,30.676-8.678,23.208,4.44,30.676,8.678,13.521,7.468,26.64,7.468,19.777-3.63,26.639-7.468,15.337-8.678,30.676-8.678,23.208,4.44,30.676,8.678,13.521,7.468,26.639,7.468Zm0-32.9c-15.337,0-23.208-4.44-30.676-8.678s-13.521-7.468-26.64-7.468-19.777,3.64-26.634,7.473-15.337,8.678-30.676,8.678-23.208-4.44-30.676-8.678-13.525-7.463-26.638-7.463-19.777,3.63-26.639,7.468-15.337,8.678-30.676,8.678-23.208-4.44-30.676-8.678-13.521-7.468-26.639-7.468-19.777,3.63-26.64,7.468-15.337,8.678-30.676,8.678-23.208-4.44-30.676-8.678-13.524-7.468-26.645-7.468-19.777,3.63-26.639,7.468-15.337,8.678-30.676,8.678-23.2-4.445-30.675-8.683S13.32,205.042,0,205.042v-8.073c15.337,0,23.208,4.44,30.676,8.678s13.521,7.468,26.639,7.468,19.777-3.63,26.639-7.468,15.337-8.678,30.676-8.678,23.208,4.44,30.676,8.678,13.521,7.468,26.639,7.468,19.777-3.63,26.64-7.468,15.337-8.678,30.676-8.678,23.208,4.44,30.676,8.678,13.521,7.468,26.639,7.468,19.777-3.63,26.639-7.468,15.337-8.678,30.676-8.678,23.208,4.44,30.676,8.678,13.521,7.468,26.639,7.468,19.777-3.63,26.639-7.468,15.337-8.678,30.676-8.678,23.208,4.44,30.676,8.678,13.521,7.468,26.639,7.468Zm0-32.9c-15.337,0-23.208-4.44-30.676-8.678s-13.521-7.468-26.64-7.468-19.777,3.63-26.639,7.468-15.337,8.678-30.676,8.678S378.8,183.238,371.333,179s-13.521-7.468-26.639-7.468-19.777,3.63-26.639,7.468-15.337,8.678-30.676,8.678S264.17,183.238,256.7,179s-13.521-7.468-26.639-7.468-19.777,3.63-26.639,7.468-15.741,9.284-31.281,9.284-23.208-4.44-30.676-8.678-13.521-7.468-26.639-7.468-19.777,3.63-26.64,7.468-15.337,8.678-30.676,8.678-23.208-4.238-30.878-8.477S13.32,172.145,0,172.145v-8.072c15.337,0,23.208,4.44,30.676,8.678S44.2,180.22,57.316,180.22s19.777-3.63,26.639-7.468,15.337-8.678,30.675-8.678,23.208,4.44,30.676,8.678,13.521,7.468,26.639,7.468,19.777-3.63,26.639-7.468,15.336-8.678,30.675-8.678,23.208,4.44,30.676,8.678,13.521,7.468,26.639,7.468,19.777-3.63,26.639-7.468,15.336-8.678,30.675-8.678,23.208,4.44,30.676,8.678,13.521,7.468,26.639,7.468,19.777-3.63,26.639-7.468,15.336-8.678,30.673-8.678,23.208,4.44,30.676,8.678,13.521,7.468,26.639,7.468Zm0-32.9c-15.337,0-23.208-4.44-30.676-8.678s-13.521-7.468-26.64-7.468-19.777,3.63-26.639,7.468-15.337,8.678-30.676,8.678-23.208-4.44-30.676-8.678-13.521-7.468-26.639-7.468-19.777,3.63-26.639,7.468-15.337,8.678-30.676,8.678-23.208-4.44-30.676-8.678-13.521-7.468-26.639-7.468-19.777,3.63-26.639,7.468-15.741,9.486-31.281,9.486-23.208-4.44-30.676-8.678-13.521-7.468-26.639-7.468-19.777,3.63-26.64,7.468S72.85,155.59,57.511,155.59s-23.208-4.44-30.878-8.678S13.32,139.453,0,139.453V131.38c15.337,0,23.208,4.44,30.676,8.678s13.521,7.468,26.639,7.468,19.777-3.634,26.638-7.468,15.337-8.678,30.676-8.678,23.208,4.44,30.676,8.678,13.521,7.468,26.639,7.468,19.777-3.63,26.639-7.468,15.337-8.678,30.676-8.678,23.208,4.44,30.676,8.678,13.521,7.468,26.639,7.468,19.777-3.63,26.639-7.468,15.337-8.678,30.676-8.678,23.208,4.44,30.676,8.678,13.521,7.468,26.639,7.468,19.777-3.63,26.639-7.468,15.337-8.678,30.676-8.678,23.208,4.44,30.676,8.678,13.521,7.468,26.639,7.468Zm0-32.9c-15.337,0-23.208-4.44-30.676-8.678s-13.521-7.468-26.64-7.468-19.777,3.63-26.639,7.468-15.337,8.678-30.676,8.678-23.208-4.44-30.676-8.678-13.521-7.468-26.639-7.468-19.777,3.63-26.639,7.468-15.337,8.678-30.676,8.678-23.208-4.44-30.676-8.678-13.521-7.468-26.639-7.468-19.777,3.63-26.639,7.468-15.741,9.486-31.281,9.486-23.208-4.44-30.676-8.678-13.521-7.468-26.639-7.468-19.777,3.63-26.64,7.468-15.337,8.678-30.676,8.678-23.2-4.431-30.871-8.67S13.32,106.557,0,106.557V98.484c15.337,0,23.208,4.44,30.676,8.678S44.2,114.63,57.316,114.63s19.777-3.63,26.639-7.468,15.337-8.678,30.676-8.678,23.409,4.44,30.875,8.673,13.521,7.468,26.639,7.468,19.777-3.63,26.64-7.468,15.337-8.678,30.676-8.678,23.208,4.446,30.879,8.678,13.521,7.468,26.639,7.468,19.777-3.63,26.639-7.468,15.337-8.678,30.676-8.678,23.2,4.446,30.672,8.678,13.521,7.468,26.639,7.468,19.777-3.63,26.639-7.468,15.337-8.678,30.676-8.678,23.41,4.44,31.072,8.678,13.521,7.468,26.64,7.468Zm0-32.9c-15.337,0-23.208-4.44-30.676-8.678s-13.521-7.468-26.64-7.468-19.777,3.63-26.639,7.468-15.337,8.678-30.676,8.678-23.208-4.44-30.676-8.678-13.521-7.468-26.639-7.468-19.777,3.63-26.639,7.468-15.337,8.678-30.676,8.678S264.17,84.55,256.7,80.312s-13.521-7.468-26.639-7.468-19.777,3.63-26.639,7.468S187.682,89.8,172.142,89.8s-23.208-4.44-30.676-8.678-13.521-7.468-26.639-7.468-19.777,3.63-26.64,7.468S72.85,89.8,57.511,89.8,34.3,85.559,26.633,81.321,13.32,73.662,0,73.662V65.589c15.337,0,23.208,4.44,30.676,8.678S44.2,81.735,57.316,81.735s19.777-3.63,26.639-7.468,15.337-8.678,30.676-8.678,23.208,4.44,30.676,8.678,13.521,7.468,26.639,7.468,19.777-3.63,26.639-7.468,15.337-8.678,30.676-8.678,23.208,4.44,30.676,8.678,13.521,7.468,26.639,7.468,19.777-3.63,26.639-7.468,15.337-8.678,30.676-8.678,23.208,4.44,30.676,8.678,13.521,7.468,26.639,7.468,19.777-3.63,26.639-7.468,15.337-8.678,30.676-8.678,23.208,4.44,30.676,8.678,13.521,7.468,26.639,7.468Zm0-32.9c-15.337,0-23.208-4.44-30.676-8.678s-13.521-7.468-26.64-7.468-19.777,3.63-26.639,7.468-15.337,8.678-30.676,8.678-23.208-4.44-30.676-8.678-13.519-7.457-26.632-7.457-19.777,3.63-26.639,7.468S302.724,56.1,287.386,56.1s-23.612-3.431-31.072-7.669-13.521-7.468-26.64-7.468S209.9,44.6,203.034,48.435s-15.337,8.678-30.878,8.678-23.208-4.44-30.676-8.678-13.521-7.468-26.639-7.468S95.064,44.6,88,48.435s-15.337,8.678-30.676,8.678-23.007-4.44-30.676-8.678S13.32,40.968,0,40.968V32.895c15.337,0,23.208,4.44,30.676,8.678S44.2,49.041,57.316,49.041s19.777-3.63,26.639-7.468,15.337-8.678,30.676-8.678,23.208,4.44,30.676,8.678,13.521,7.468,26.639,7.468,19.777-3.63,26.639-7.468,15.337-8.678,30.676-8.678,23.208,4.44,30.676,8.678,13.521,7.468,26.639,7.468,19.777-3.63,26.639-7.468,15.337-8.678,30.676-8.678,23.208,4.44,30.676,8.678,13.521,7.468,26.639,7.468,19.777-3.63,26.639-7.468,15.337-8.678,30.676-8.678,23.208,4.44,30.676,8.678,13.521,7.468,26.639,7.468Zm0-31.887c-15.337,0-23.208-4.44-30.676-8.678s-13.521-7.456-26.64-7.456-19.777,3.632-26.634,7.463-15.536,8.678-30.878,8.678-23.213-4.437-30.686-8.678S357.612,8.073,344.5,8.073s-19.777,3.63-26.639,7.468-15.536,8.678-30.878,8.678-23.208-4.44-30.676-8.678-13.319-7.468-26.638-7.468-19.777,3.63-26.639,7.468-15.337,8.678-30.878,8.678-23.208-4.442-30.675-8.683-13.32-7.463-26.639-7.463S95.055,11.7,87.991,15.536s-15.135,8.678-30.676,8.678S34.308,19.777,26.64,15.536,13.32,8.073,0,8.073V0C15.338,0,23.209,4.44,30.677,8.678S44.2,16.146,57.316,16.146s19.777-3.63,26.639-7.468S99.293,0,114.832,0s23.208,4.44,30.675,8.678,13.319,7.468,26.639,7.468,19.777-3.63,26.64-7.468S214.123,0,229.664,0s23.007,4.44,30.677,8.678,13.319,7.468,26.639,7.468,19.777-3.63,26.639-7.468S328.954,0,344.5,0,367.7,4.44,375.171,8.678s13.319,7.468,26.639,7.468,19.777-3.63,26.639-7.468S443.786,0,459.325,0,482.332,4.44,490,8.678s13.319,7.468,26.64,7.468Z" transform="translate(1323.178 478.176)"/><path d="M516.64,516.64c-15.337,0-23.208-4.44-30.676-8.678s-13.521-7.468-26.64-7.468-19.777,3.634-26.634,7.468-15.337,8.678-30.676,8.678-23.208-4.44-30.676-8.678S357.814,500.5,344.7,500.5s-19.777,3.63-26.639,7.468-15.337,8.678-30.676,8.678-23.208-4.44-30.676-8.678S243.189,500.5,230.07,500.5s-19.777,3.63-26.64,7.468-15.741,8.678-31.281,8.678-23.208-4.44-30.676-8.678-13.322-7.468-26.641-7.468-19.777,3.63-26.639,7.468-15.337,8.678-30.878,8.678-23.208-4.44-30.676-8.678S13.32,500.5,0,500.5v-8.073c15.337,0,23.208,4.44,30.676,8.678s13.521,7.468,26.639,7.468,19.777-3.63,26.639-7.468,15.337-8.678,30.676-8.678,23.208,4.44,30.676,8.678,13.521,7.468,26.639,7.468,19.777-3.63,26.639-7.468,15.337-8.678,30.676-8.678,23.208,4.44,30.676,8.678,13.521,7.468,26.639,7.468,19.777-3.63,26.639-7.468,15.337-8.678,30.676-8.678,23.208,4.44,30.676,8.678,13.521,7.468,26.639,7.468,19.777-3.63,26.639-7.468,15.337-8.678,30.676-8.678,23.208,4.44,30.676,8.678,13.521,7.468,26.639,7.468Zm0-32.9c-15.337,0-23.208-4.44-30.676-8.678s-13.521-7.468-26.64-7.468-19.777,3.63-26.639,7.468-15.337,8.678-30.676,8.678-23.208-4.44-30.676-8.678-13.521-7.468-26.639-7.468-19.777,3.63-26.639,7.468-15.337,8.678-30.676,8.678-23.208-4.44-30.676-8.678-13.521-7.468-26.639-7.468-19.777,3.63-26.639,7.468-15.337,8.678-30.676,8.678-23.208-4.44-30.676-8.678-13.521-7.468-26.639-7.468-19.777,3.63-26.639,7.468-15.337,8.678-30.676,8.678-23.2-4.445-30.673-8.677S13.32,467.6,0,467.6v-8.073c15.337,0,23.208,4.44,30.676,8.678s13.521,7.468,26.639,7.468,19.777-3.63,26.64-7.468,15.337-8.678,30.676-8.678,23.208,4.44,30.676,8.678,13.521,7.468,26.639,7.468,19.777-3.63,26.639-7.468,15.337-8.678,30.676-8.678,23.208,4.44,30.676,8.678,13.521,7.468,26.639,7.468,19.777-3.63,26.639-7.468,15.337-8.678,30.676-8.678,23.208,4.44,30.676,8.678,13.521,7.468,26.64,7.468,19.777-3.63,26.639-7.468,15.337-8.678,30.676-8.678,23.208,4.44,30.676,8.678,13.521,7.468,26.639,7.468Zm0-32.9c-15.337,0-23.208-4.44-30.676-8.678s-13.521-7.468-26.64-7.468-19.777,3.63-26.639,7.468-15.337,8.678-30.676,8.678-23.208-4.44-30.676-8.678-13.521-7.468-26.639-7.468-19.777,3.63-26.639,7.468-15.337,8.678-30.676,8.678-23.208-4.44-30.676-8.678-13.521-7.468-26.639-7.468-19.777,3.63-26.639,7.468-15.337,8.678-30.676,8.678-23.208-4.44-30.676-8.678-13.521-7.468-26.639-7.468-19.777,3.63-26.639,7.468-15.337,8.678-30.676,8.678-23.208-4.44-30.676-8.678S13.314,434.909,0,434.909v-8.073c15.337,0,23.208,4.44,30.676,8.678s13.521,7.468,26.639,7.468,19.777-3.63,26.64-7.468,15.337-8.678,30.676-8.678,23.208,4.44,30.676,8.678,13.521,7.468,26.639,7.468,19.777-3.63,26.64-7.468,15.337-8.678,30.676-8.678,23.208,4.44,30.676,8.678,13.521,7.468,26.639,7.468,19.777-3.63,26.639-7.468,15.337-8.678,30.676-8.678,23.208,4.44,30.676,8.678,13.521,7.468,26.64,7.468,19.777-3.63,26.639-7.468,15.337-8.678,30.676-8.678,23.208,4.44,30.676,8.678,13.521,7.468,26.639,7.468Zm0-32.9c-15.337,0-23.208-4.44-30.676-8.678s-13.521-7.468-26.64-7.468-19.777,3.63-26.639,7.468-15.337,8.678-30.676,8.678-23.208-4.44-30.676-8.678-13.521-7.468-26.639-7.468-19.777,3.63-26.639,7.468-15.337,8.678-30.676,8.678-23.208-4.44-30.676-8.678-13.521-7.468-26.639-7.468-19.777,3.63-26.639,7.468-15.337,8.678-30.676,8.678-23.208-4.44-30.676-8.678-13.521-7.468-26.639-7.468-19.777,3.63-26.639,7.468-15.337,8.678-30.676,8.678-23.812-4.238-31.483-8.477S13.32,402.01,0,402.01v-8.073c15.337,0,23.208,4.44,30.676,8.678s13.521,7.468,26.639,7.468,19.777-3.63,26.639-7.468,15.337-8.678,30.676-8.678,23.208,4.44,30.676,8.678,13.521,7.468,26.639,7.468,19.777-3.63,26.639-7.468,15.337-8.678,30.676-8.678,23.208,4.44,30.676,8.678,13.521,7.468,26.639,7.468,19.777-3.63,26.639-7.468,15.337-8.678,30.676-8.678,23.208,4.44,30.676,8.678,13.521,7.468,26.639,7.468,19.777-3.63,26.639-7.468,15.337-8.678,30.676-8.678,23.208,4.44,30.676,8.678,13.521,7.468,26.639,7.468Zm0-32.9c-15.337,0-23.208-4.44-30.676-8.678s-13.521-7.468-26.64-7.468-19.777,3.63-26.639,7.468-15.337,8.678-30.676,8.678-23.208-4.44-30.676-8.678-13.521-7.468-26.639-7.468-19.777,3.63-26.639,7.468-15.337,8.678-30.676,8.678-23.208-4.44-30.676-8.678-13.521-7.468-26.639-7.468-19.777,3.63-26.639,7.468-15.337,8.678-30.676,8.678-23.208-4.44-30.676-8.678-13.521-7.468-26.639-7.468-19.777,3.63-26.639,7.468-15.337,8.678-30.676,8.678-23.208-4.44-30.676-8.678S13.314,369.117,0,369.117v-8.073c15.337,0,23.208,4.44,30.676,8.678s13.521,7.468,26.639,7.468,19.777-3.63,26.64-7.468,15.337-8.679,30.676-8.679,23.208,4.44,30.676,8.679,13.521,7.468,26.639,7.468,19.777-3.63,26.64-7.468,15.337-8.679,30.676-8.679,23.208,4.44,30.676,8.679,13.521,7.468,26.639,7.468,19.777-3.63,26.639-7.468,15.337-8.679,30.676-8.679,23.208,4.44,30.676,8.679,13.521,7.468,26.64,7.468,19.777-3.63,26.639-7.468,15.337-8.679,30.676-8.679,23.208,4.44,30.676,8.679,13.521,7.468,26.639,7.468Zm0-32.9c-15.337,0-23.208-4.44-30.676-8.678s-13.521-7.468-26.64-7.468-19.777,3.63-26.639,7.468-15.337,8.678-30.676,8.678-23.208-4.44-30.676-8.678-13.521-7.468-26.639-7.468-19.777,3.63-26.639,7.468-15.337,8.678-30.676,8.678-23.208-4.44-30.676-8.678-13.521-7.468-26.639-7.468-19.777,3.63-26.639,7.468-15.337,8.678-30.676,8.678-23.208-4.44-30.676-8.678-13.516-7.463-26.638-7.463-19.777,3.63-26.639,7.468-15.337,8.678-30.676,8.678-23.208-4.44-30.676-8.678S13.32,336.424,0,336.424v-8.073c15.337,0,23.208,4.44,30.676,8.679S44.2,344.5,57.316,344.5s19.777-3.63,26.639-7.468,15.337-8.679,30.676-8.679,23.208,4.44,30.676,8.679,13.521,7.468,26.639,7.468,19.777-3.63,26.639-7.468,15.337-8.679,30.676-8.679,23.208,4.44,30.676,8.679,13.521,7.468,26.639,7.468,19.777-3.63,26.639-7.468,15.337-8.679,30.676-8.679,23.208,4.44,30.676,8.679,13.521,7.468,26.639,7.468,19.777-3.63,26.639-7.468,15.337-8.679,30.676-8.679,23.208,4.44,30.676,8.679,13.521,7.468,26.639,7.468Zm0-32.9c-15.337,0-23.208-4.44-30.676-8.678s-13.521-7.468-26.64-7.468-19.777,3.63-26.639,7.468-15.337,8.678-30.676,8.678-23.208-4.44-30.676-8.678-13.521-7.468-26.639-7.468-19.777,3.63-26.639,7.468-15.337,8.678-30.676,8.678-23.208-4.44-30.676-8.678-13.521-7.468-26.639-7.468-19.777,3.63-26.639,7.468-15.337,8.678-30.676,8.678-23.208-4.44-30.676-8.678-13.521-7.468-26.639-7.468-19.777,3.63-26.639,7.468-15.337,8.678-30.676,8.678-23.208-4.44-30.676-8.678S13.32,303.525,0,303.525v-8.073c15.337,0,23.208,4.44,30.676,8.678S44.2,311.6,57.316,311.6s19.777-3.63,26.639-7.468,15.337-8.678,30.676-8.678,23.208,4.44,30.676,8.678,13.521,7.468,26.639,7.468,19.777-3.63,26.639-7.468,15.337-8.678,30.676-8.678,23.208,4.44,30.676,8.678,13.521,7.468,26.639,7.468,19.777-3.63,26.639-7.468,15.337-8.678,30.676-8.678,23.208,4.44,30.676,8.678,13.521,7.468,26.639,7.468,19.777-3.63,26.639-7.468,15.337-8.678,30.676-8.678,23.208,4.44,30.676,8.678,13.521,7.468,26.639,7.468Zm0-32.9c-15.337,0-23.208-4.44-30.676-8.678s-13.521-7.468-26.64-7.468-19.777,3.63-26.639,7.468-15.337,8.678-30.676,8.678-23.208-4.44-30.676-8.678-13.521-7.468-26.639-7.468-19.777,3.63-26.639,7.468-15.337,8.678-30.676,8.678-23.208-4.44-30.676-8.678-13.521-7.468-26.639-7.468-19.777,3.63-26.639,7.468-15.337,8.678-30.676,8.678-23.208-4.44-30.676-8.678-13.521-7.468-26.639-7.468-19.777,3.63-26.639,7.468-15.337,8.678-30.676,8.678-23.812-3.835-31.483-8.073S13.32,270.63,0,270.63v-8.073c15.337,0,23.208,4.44,30.676,8.678S44.2,278.7,57.316,278.7s19.777-3.63,26.639-7.468,15.337-8.678,30.676-8.678,23.208,4.44,30.676,8.678,13.521,7.468,26.639,7.468,19.777-3.63,26.639-7.468,15.337-8.678,30.676-8.678,23.208,4.44,30.676,8.678,13.521,7.468,26.639,7.468,19.777-3.63,26.639-7.468,15.337-8.678,30.676-8.678S367.1,267,374.57,271.236s13.521,7.468,26.639,7.468,19.777-3.63,26.639-7.468,15.337-8.678,30.676-8.678,23.208,4.44,30.676,8.678,13.521,7.468,26.639,7.468Zm0-32.9c-15.337,0-23.208-4.44-30.676-8.678s-13.521-7.468-26.64-7.468-19.777,3.63-26.639,7.468-15.337,8.678-30.676,8.678-23.208-4.44-30.676-8.678-13.521-7.468-26.639-7.468-19.777,3.63-26.639,7.468-15.337,8.678-30.676,8.678-23.208-4.44-30.676-8.678-13.521-7.468-26.639-7.468-19.777,3.63-26.639,7.468-15.337,8.678-30.676,8.678-23.208-4.44-30.676-8.678-13.521-7.468-26.639-7.468-19.777,3.63-26.639,7.468-15.337,8.678-30.676,8.678-23.2-4.434-30.673-8.667S13.32,237.936,0,237.936v-8.073c15.337,0,23.208,4.44,30.676,8.678s13.521,7.468,26.639,7.468,19.777-3.63,26.64-7.468,15.337-8.678,30.676-8.678,23.208,4.44,30.676,8.678,13.521,7.468,26.639,7.468,19.777-3.63,26.639-7.468,15.337-8.678,30.676-8.678,23.208,4.44,30.676,8.678,13.521,7.468,26.639,7.468,19.777-3.63,26.639-7.468,15.337-8.678,30.676-8.678,23.208,4.44,30.676,8.678,13.521,7.468,26.64,7.468,19.777-3.63,26.639-7.468,15.337-8.678,30.676-8.678,23.208,4.44,30.676,8.678,13.521,7.468,26.639,7.468Zm0-32.9c-15.337,0-23.208-4.44-30.676-8.678s-13.521-7.468-26.64-7.468-19.777,3.64-26.634,7.473-15.337,8.678-30.676,8.678-23.208-4.44-30.676-8.678-13.525-7.463-26.638-7.463-19.777,3.63-26.639,7.468-15.337,8.678-30.676,8.678-23.208-4.44-30.676-8.678-13.521-7.468-26.639-7.468-19.777,3.63-26.64,7.468-15.337,8.678-30.676,8.678-23.208-4.44-30.676-8.678-13.524-7.468-26.645-7.468-19.777,3.63-26.639,7.468-15.337,8.678-30.676,8.678-23.2-4.445-30.675-8.683S13.32,205.042,0,205.042v-8.073c15.337,0,23.208,4.44,30.676,8.678s13.521,7.468,26.639,7.468,19.777-3.63,26.639-7.468,15.337-8.678,30.676-8.678,23.208,4.44,30.676,8.678,13.521,7.468,26.639,7.468,19.777-3.63,26.64-7.468,15.337-8.678,30.676-8.678,23.208,4.44,30.676,8.678,13.521,7.468,26.639,7.468,19.777-3.63,26.639-7.468,15.337-8.678,30.676-8.678,23.208,4.44,30.676,8.678,13.521,7.468,26.639,7.468,19.777-3.63,26.639-7.468,15.337-8.678,30.676-8.678,23.208,4.44,30.676,8.678,13.521,7.468,26.639,7.468Zm0-32.9c-15.337,0-23.208-4.44-30.676-8.678s-13.521-7.468-26.64-7.468-19.777,3.63-26.639,7.468-15.337,8.678-30.676,8.678S378.8,183.238,371.333,179s-13.521-7.468-26.639-7.468-19.777,3.63-26.639,7.468-15.337,8.678-30.676,8.678S264.17,183.238,256.7,179s-13.521-7.468-26.639-7.468-19.777,3.63-26.639,7.468-15.741,9.284-31.281,9.284-23.208-4.44-30.676-8.678-13.521-7.468-26.639-7.468-19.777,3.63-26.64,7.468-15.337,8.678-30.676,8.678-23.208-4.238-30.878-8.477S13.32,172.145,0,172.145v-8.072c15.337,0,23.208,4.44,30.676,8.678S44.2,180.22,57.316,180.22s19.777-3.63,26.639-7.468,15.337-8.678,30.675-8.678,23.208,4.44,30.676,8.678,13.521,7.468,26.639,7.468,19.777-3.63,26.639-7.468,15.336-8.678,30.675-8.678,23.208,4.44,30.676,8.678,13.521,7.468,26.639,7.468,19.777-3.63,26.639-7.468,15.336-8.678,30.675-8.678,23.208,4.44,30.676,8.678,13.521,7.468,26.639,7.468,19.777-3.63,26.639-7.468,15.336-8.678,30.673-8.678,23.208,4.44,30.676,8.678,13.521,7.468,26.639,7.468Zm0-32.9c-15.337,0-23.208-4.44-30.676-8.678s-13.521-7.468-26.64-7.468-19.777,3.63-26.639,7.468-15.337,8.678-30.676,8.678-23.208-4.44-30.676-8.678-13.521-7.468-26.639-7.468-19.777,3.63-26.639,7.468-15.337,8.678-30.676,8.678-23.208-4.44-30.676-8.678-13.521-7.468-26.639-7.468-19.777,3.63-26.639,7.468-15.741,9.486-31.281,9.486-23.208-4.44-30.676-8.678-13.521-7.468-26.639-7.468-19.777,3.63-26.64,7.468S72.85,155.59,57.511,155.59s-23.208-4.44-30.878-8.678S13.32,139.453,0,139.453V131.38c15.337,0,23.208,4.44,30.676,8.678s13.521,7.468,26.639,7.468,19.777-3.634,26.638-7.468,15.337-8.678,30.676-8.678,23.208,4.44,30.676,8.678,13.521,7.468,26.639,7.468,19.777-3.63,26.639-7.468,15.337-8.678,30.676-8.678,23.208,4.44,30.676,8.678,13.521,7.468,26.639,7.468,19.777-3.63,26.639-7.468,15.337-8.678,30.676-8.678,23.208,4.44,30.676,8.678,13.521,7.468,26.639,7.468,19.777-3.63,26.639-7.468,15.337-8.678,30.676-8.678,23.208,4.44,30.676,8.678,13.521,7.468,26.639,7.468Zm0-32.9c-15.337,0-23.208-4.44-30.676-8.678s-13.521-7.468-26.64-7.468-19.777,3.63-26.639,7.468-15.337,8.678-30.676,8.678-23.208-4.44-30.676-8.678-13.521-7.468-26.639-7.468-19.777,3.63-26.639,7.468-15.337,8.678-30.676,8.678-23.208-4.44-30.676-8.678-13.521-7.468-26.639-7.468-19.777,3.63-26.639,7.468-15.741,9.486-31.281,9.486-23.208-4.44-30.676-8.678-13.521-7.468-26.639-7.468-19.777,3.63-26.64,7.468-15.337,8.678-30.676,8.678-23.2-4.431-30.871-8.67S13.32,106.557,0,106.557V98.484c15.337,0,23.208,4.44,30.676,8.678S44.2,114.63,57.316,114.63s19.777-3.63,26.639-7.468,15.337-8.678,30.676-8.678,23.409,4.44,30.875,8.673,13.521,7.468,26.639,7.468,19.777-3.63,26.64-7.468,15.337-8.678,30.676-8.678,23.208,4.446,30.879,8.678,13.521,7.468,26.639,7.468,19.777-3.63,26.639-7.468,15.337-8.678,30.676-8.678,23.2,4.446,30.672,8.678,13.521,7.468,26.639,7.468,19.777-3.63,26.639-7.468,15.337-8.678,30.676-8.678,23.41,4.44,31.072,8.678,13.521,7.468,26.64,7.468Zm0-32.9c-15.337,0-23.208-4.44-30.676-8.678s-13.521-7.468-26.64-7.468-19.777,3.63-26.639,7.468-15.337,8.678-30.676,8.678-23.208-4.44-30.676-8.678-13.521-7.468-26.639-7.468-19.777,3.63-26.639,7.468-15.337,8.678-30.676,8.678S264.17,84.55,256.7,80.312s-13.521-7.468-26.639-7.468-19.777,3.63-26.639,7.468S187.682,89.8,172.142,89.8s-23.208-4.44-30.676-8.678-13.521-7.468-26.639-7.468-19.777,3.63-26.64,7.468S72.85,89.8,57.511,89.8,34.3,85.559,26.633,81.321,13.32,73.662,0,73.662V65.589c15.337,0,23.208,4.44,30.676,8.678S44.2,81.735,57.316,81.735s19.777-3.63,26.639-7.468,15.337-8.678,30.676-8.678,23.208,4.44,30.676,8.678,13.521,7.468,26.639,7.468,19.777-3.63,26.639-7.468,15.337-8.678,30.676-8.678,23.208,4.44,30.676,8.678,13.521,7.468,26.639,7.468,19.777-3.63,26.639-7.468,15.337-8.678,30.676-8.678,23.208,4.44,30.676,8.678,13.521,7.468,26.639,7.468,19.777-3.63,26.639-7.468,15.337-8.678,30.676-8.678,23.208,4.44,30.676,8.678,13.521,7.468,26.639,7.468Zm0-32.9c-15.337,0-23.208-4.44-30.676-8.678s-13.521-7.468-26.64-7.468-19.777,3.63-26.639,7.468-15.337,8.678-30.676,8.678-23.208-4.44-30.676-8.678-13.519-7.457-26.632-7.457-19.777,3.63-26.639,7.468S302.724,56.1,287.386,56.1s-23.612-3.431-31.072-7.669-13.521-7.468-26.64-7.468S209.9,44.6,203.034,48.435s-15.337,8.678-30.878,8.678-23.208-4.44-30.676-8.678-13.521-7.468-26.639-7.468S95.064,44.6,88,48.435s-15.337,8.678-30.676,8.678-23.007-4.44-30.676-8.678S13.32,40.968,0,40.968V32.895c15.337,0,23.208,4.44,30.676,8.678S44.2,49.041,57.316,49.041s19.777-3.63,26.639-7.468,15.337-8.678,30.676-8.678,23.208,4.44,30.676,8.678,13.521,7.468,26.639,7.468,19.777-3.63,26.639-7.468,15.337-8.678,30.676-8.678,23.208,4.44,30.676,8.678,13.521,7.468,26.639,7.468,19.777-3.63,26.639-7.468,15.337-8.678,30.676-8.678,23.208,4.44,30.676,8.678,13.521,7.468,26.639,7.468,19.777-3.63,26.639-7.468,15.337-8.678,30.676-8.678,23.208,4.44,30.676,8.678,13.521,7.468,26.639,7.468Zm0-31.887c-15.337,0-23.208-4.44-30.676-8.678s-13.521-7.456-26.64-7.456-19.777,3.632-26.634,7.463-15.536,8.678-30.878,8.678-23.213-4.437-30.686-8.678S357.612,8.073,344.5,8.073s-19.777,3.63-26.639,7.468-15.536,8.678-30.878,8.678-23.208-4.44-30.676-8.678-13.319-7.468-26.638-7.468-19.777,3.63-26.639,7.468-15.337,8.678-30.878,8.678-23.208-4.442-30.675-8.683-13.32-7.463-26.639-7.463S95.055,11.7,87.991,15.536s-15.135,8.678-30.676,8.678S34.308,19.777,26.64,15.536,13.32,8.073,0,8.073V0C15.338,0,23.209,4.44,30.677,8.678S44.2,16.146,57.316,16.146s19.777-3.63,26.639-7.468S99.293,0,114.832,0s23.208,4.44,30.675,8.678,13.319,7.468,26.639,7.468,19.777-3.63,26.64-7.468S214.123,0,229.664,0s23.007,4.44,30.677,8.678,13.319,7.468,26.639,7.468,19.777-3.63,26.639-7.468S328.954,0,344.5,0,367.7,4.44,375.171,8.678s13.319,7.468,26.639,7.468,19.777-3.63,26.639-7.468S443.786,0,459.325,0,482.332,4.44,490,8.678s13.319,7.468,26.64,7.468Z" transform="translate(1323.178 246.176)"/></g></svg>