<svg xmlns="http://www.w3.org/2000/svg" width="185.999" height="114.245" viewBox="0 0 185.999 114.245"><g transform="translate(0 -95.672)"><path d="M264,183v43.314a6,6,0,0,0,12,0V202.683a6,6,0,1,1,12,0v11.631a6,6,0,0,0,12,0V196.686a6,6,0,0,1,12,0v2.631a6,6,0,0,0,12,0v-8.631a6,6,0,0,1,12,0v17.631a6,6,0,0,0,12,0V168Z" transform="translate(-165.001 -45.205)" fill="#ffa69e"/><path d="M129.359,95.672,0,120.311v64.434l56.64,25.173L186,185.278V120.845Zm43.659,25.971-22.209,4.23L106.43,106.148l22.209-4.23ZM6,127.412l48,21.333v8.433L6,135.845Zm51.36,16.26L12.981,123.947l22.209-4.23,44.379,19.725Zm32.55-6.2L45.531,117.746l20.109-3.831,44.379,19.725Zm30.45-5.8L75.981,111.947l20.109-3.831,44.379,19.725ZM6,142.412l48,21.333V202.18L6,180.845Zm54,60.756V164.255l39-7.8v-6.12l-39,7.8v-8.859l120-22.857v53.892Z"/><rect width="6" height="6" transform="translate(12 155.795)"/><rect width="6" height="6" transform="translate(21 173.795)"/><rect width="6" height="6" transform="translate(39 167.795)"/><rect width="6" height="6" transform="translate(66 179.795)"/><rect width="6" height="6" transform="translate(84 167.795)"/></g></svg>