<svg xmlns="http://www.w3.org/2000/svg" width="240.372" height="345.354" viewBox="0 0 240.372 345.354"><g transform="translate(-1043.714 -2460.398)"><g transform="translate(1043.714 2460.398)"><path d="M100.772,503.3l.589-.3h-1.178Z" transform="translate(-52.573 -157.945)"/><path d="M201.477,503.3l.589-.3h-1.179Z" transform="translate(-105.335 -157.945)"/><path d="M120.439,393.3l24.021,21.606L168.482,393.3l24.024,21.606L216.528,393.3l24.022,21.6v15.324l-24.022-21.6-24.022,21.607L168.482,408.63,144.46,430.236,120.439,408.63h-.149L96.268,430.236,72.246,408.63,48.222,430.236,24.2,408.629.178,430.232V414.908L24.2,393.3l24.023,21.606L72.246,393.3l24.023,21.606L120.29,393.3Z" transform="translate(-0.178 -123.435)"/><path d="M120.439,449.553l24.021,21.606,24.022-21.606,24.024,21.606,24.022-21.606,24.022,21.6v15.029h-.328l-23.694-21.308-23.69,21.308h-.664l-23.692-21.308-23.69,21.308h-.665l-23.689-21.308h-.149L96.6,486.186h-.665l-23.69-21.308L48.554,486.186H47.89L24.2,464.877.506,486.186H.178V471.156l24.021-21.6,24.023,21.606,24.023-21.606,24.023,21.606,24.021-21.606Z" transform="translate(-0.178 -141.131)"/><path d="M120.439,280.808l24.021,21.607,24.022-21.606,24.024,21.606,24.022-21.606,24.022,21.6v15.325l-24.022-21.6-24.022,21.607-24.024-21.607L144.46,317.739l-24.021-21.607h-.149L96.268,317.739,72.246,296.133,48.222,317.739,24.2,296.132.178,317.736V302.411l24.021-21.6,24.023,21.606,24.023-21.606,24.023,21.606,24.021-21.607Z" transform="translate(-0.178 -88.043)"/><path d="M120.439,337.056l24.021,21.607,24.022-21.606,24.024,21.606,24.022-21.606,24.022,21.6v15.325l-24.022-21.6-24.022,21.607-24.024-21.607L144.46,373.987l-24.021-21.607h-.149L96.268,373.987,72.246,352.381,48.222,373.987,24.2,352.38.178,373.984V358.659l24.021-21.6,24.023,21.606,24.023-21.606,24.023,21.606,24.021-21.607Z" transform="translate(-0.178 -105.739)"/><path d="M120.439,168.311l24.021,21.606,24.022-21.606,24.024,21.606,24.022-21.605,24.022,21.6v15.324l-24.022-21.6-24.022,21.607-24.024-21.606L144.46,205.242l-24.021-21.606h-.149L96.268,205.242,72.246,183.636,48.222,205.242,24.2,183.635.178,205.238V189.913l24.021-21.6,24.023,21.605,24.023-21.606,24.023,21.606,24.021-21.606Z" transform="translate(-0.178 -52.652)"/><path d="M120.439,224.559l24.021,21.606,24.022-21.606,24.024,21.607,24.022-21.607,24.022,21.6v15.324l-24.022-21.6L192.506,261.49l-24.024-21.606L144.46,261.49l-24.021-21.606h-.149L96.268,261.49,72.246,239.884,48.222,261.49,24.2,239.884.178,261.486V246.162l24.021-21.6,24.023,21.607,24.023-21.607,24.023,21.606,24.021-21.606Z" transform="translate(-0.178 -70.347)"/><path d="M120.439,55.813,144.46,77.42l24.022-21.607L192.506,77.42l24.022-21.606,24.022,21.6V92.74l-24.022-21.6L192.506,92.744,168.482,71.139,144.46,92.744,120.439,71.139h-.149L96.268,92.744,72.246,71.139,48.222,92.744,24.2,71.138.178,92.74V77.416L24.2,55.814,48.222,77.42,72.246,55.813,96.268,77.42,120.29,55.813Z" transform="translate(-0.178 -17.26)"/><path d="M120.439-.436,144.46,21.171,168.482-.436l24.024,21.607L216.528-.435l24.022,21.6V36.491l-24.022-21.6L192.506,36.5,168.482,14.89,144.46,36.5,120.439,14.89h-.149L96.268,36.5,72.246,14.89,48.222,36.5,24.2,14.889.178,36.491V21.167L24.2-.435,48.222,21.171,72.246-.436,96.268,21.171,120.29-.436Z" transform="translate(-0.178 0.436)"/><path d="M120.439,112.062l24.021,21.606,24.022-21.606,24.024,21.606,24.022-21.606,24.022,21.6v15.324l-24.022-21.6-24.022,21.607-24.024-21.606L144.46,148.993l-24.021-21.606h-.149L96.268,148.993,72.246,127.387,48.222,148.993,24.2,127.386.178,148.989V133.664l24.021-21.6,24.023,21.606,24.023-21.606,24.023,21.606,24.021-21.606Z" transform="translate(-0.178 -34.956)"/></g></g></svg>