<svg xmlns="http://www.w3.org/2000/svg" width="151.438" height="153.304" viewBox="0 0 151.438 153.304"><g transform="translate(-3.056)"><g transform="translate(10.486 75.091)"><path d="M291.087,334.112a7.233,7.233,0,0,1,.449,2.443l-3.3,12.562.862,2.093h48.851l4.5-17.1Z" transform="translate(-208.593 -307.193)" fill="#ffa69e"/><path d="M36.32,438.112l4.5,17.1h63.506l4.5-17.1Z" transform="translate(-33.594 -379.44)" fill="#ffa69e"/><path d="M105.348,267.277a38.984,38.984,0,0,0-18.287-21.331h0a5.95,5.95,0,0,1-2.521,1.888A50.261,50.261,0,0,1,66.37,250.88,50.2,50.2,0,0,1,48.2,247.832a5.95,5.95,0,0,1-2.521-1.888h0a38.98,38.98,0,0,0-18.287,21.331l.142,1.075a7.237,7.237,0,0,1,9.526,6.956,7.328,7.328,0,1,1,14.655,0,7.328,7.328,0,0,1,14.655,0,7.328,7.328,0,0,1,14.655,0,7.328,7.328,0,1,1,14.655,0,7.327,7.327,0,0,1,7.328-7.328,7.21,7.21,0,0,1,2.347.42Z" transform="translate(-27.392 -245.944)" fill="#ffa69e"/></g><path d="M147.1,63.257A70.725,70.725,0,0,0,115.594,6.38L106.024,0l-1.3,14.357A20.111,20.111,0,0,1,88.833,32.281,25.216,25.216,0,0,0,69,56.809v6.465c-.237.061-.479.105-.711.186a8.46,8.46,0,0,0-1.8-.425A14.733,14.733,0,0,0,60.7,52.424a9.813,9.813,0,0,1-3.911-7.814V36.54L43.871,44.616A24.288,24.288,0,0,0,32.515,63.027a8.429,8.429,0,0,0-2.1,16.231A52.7,52.7,0,0,0,49.464,82.47a52.7,52.7,0,0,0,19.052-3.212,8.436,8.436,0,0,0,4.731-11.089A4.885,4.885,0,0,1,76.332,72.7l1.185,7.535a39.532,39.532,0,0,1,5.994,6.688l-2.284-14.34a4.881,4.881,0,0,1,9.76.117l2.694,25.664A9.7,9.7,0,0,0,78.775,98,9.757,9.757,0,0,0,64.12,98a9.757,9.757,0,0,0-14.655,0,9.757,9.757,0,0,0-14.655,0,9.757,9.757,0,0,0-14.655,0,9.766,9.766,0,0,0-17.1,6.456L15.828,153.3H83.1l8.356-31.753h50.265L154.411,73.32l.083-.62A9.76,9.76,0,0,0,147.1,63.257Zm-4.883.034a9.77,9.77,0,0,0-4.822,2.953,9.773,9.773,0,0,0-4.936-2.992,123.834,123.834,0,0,0-8.73-43.734A65.819,65.819,0,0,1,142.218,63.291ZM66.745,74.7a47.738,47.738,0,0,1-17.281,2.882A47.738,47.738,0,0,1,32.183,74.7a3.533,3.533,0,0,1-2.259-3.322,3.57,3.57,0,0,1,3.566-3.566h8.647V62.93H37.405A19.457,19.457,0,0,1,46.46,48.758l5.464-3.415a14.738,14.738,0,0,0,5.843,10.991A9.775,9.775,0,0,1,61.53,62.93H56.792v4.885h8.647A3.57,3.57,0,0,1,69,71.381,3.533,3.533,0,0,1,66.745,74.7Zm12.03-8.459a9.774,9.774,0,0,0-4.885-2.975V56.809a20.3,20.3,0,0,1,15.969-19.75,24.953,24.953,0,0,0,19.33-19.621A20.113,20.113,0,0,1,98.108,40.043,24.946,24.946,0,0,0,83.66,62.624v.647A9.753,9.753,0,0,0,78.775,66.244Zm9.77-2.975v-.647a20.043,20.043,0,0,1,11.609-18.146A25.012,25.012,0,0,0,113.1,13.4l-1.351-3.715,1.133.755c.879.586,1.727,1.209,2.572,1.832l2.965,7.064a119.1,119.1,0,0,1,9.155,43.949,9.758,9.758,0,0,0-4.834,2.958,9.762,9.762,0,0,0-14.658,0,9.786,9.786,0,0,0-4.626-2.887,8.642,8.642,0,0,1,5-5.955l3.622-1.556a13.592,13.592,0,0,0,7.887-9.48L115.2,45.295a8.688,8.688,0,0,1-5.044,6.062l-3.622,1.556A13.524,13.524,0,0,0,98.5,63.206a9.767,9.767,0,0,0-5.068,3.036A9.8,9.8,0,0,0,88.545,63.269Zm12.213,4.546a4.89,4.89,0,0,1,4.885,4.885v43.966h-5.129L95.88,72.634A4.888,4.888,0,0,1,100.758,67.815Zm9.77,4.885a4.882,4.882,0,0,1,9.763-.066l-4.634,44.032h-5.129V72.7ZM71.447,99.568a4.884,4.884,0,0,1,4.873,4.768l-6.959,44.083H61.946l4.6-43.712,0-.254h.012A4.89,4.89,0,0,1,71.447,99.568Zm-14.655,0a4.887,4.887,0,0,1,4.878,4.819l-4.634,44.032H51.907V104.453A4.89,4.89,0,0,1,56.792,99.568Zm-14.655,0a4.89,4.89,0,0,1,4.885,4.885v43.966H41.892l-4.633-44.032A4.887,4.887,0,0,1,42.137,99.568Zm-34.188,4.6a4.886,4.886,0,0,1,9.763.283l1.959,12.594,4.824-.762-1.886-11.946a4.88,4.88,0,0,1,9.758.115l4.616,43.966H29.567l-4.3-27.249-4.824.762,4.182,26.487H19.592Zm71.386,44.249H74.3l6.881-43.585.007-.381h.027a4.886,4.886,0,0,1,9.763-.283Zm15.454-39.528.816,7.775H92.741Zm43.167,7.775h-5.032l.711-4.5-4.824-.762-.828,5.266h-7.416l4.6-43.712,0-.254h.012a4.88,4.88,0,0,1,9.758-.117l-5.357,33.932,4.824.762,5.4-34.2,0-.381h.027a4.886,4.886,0,0,1,9.763-.286Z"/><rect width="4.885" height="4.885" transform="translate(47.022 84.913)"/><rect width="4.885" height="4.885" transform="translate(61.677 84.913)"/><rect width="4.885" height="4.885" transform="translate(32.367 84.913)"/><rect width="4.885" height="4.885" transform="translate(115.413 36.062)"/></g></svg>