<svg xmlns="http://www.w3.org/2000/svg" width="165.428" height="153.304" viewBox="0 0 165.428 153.304"><g transform="translate(0 -1.504)"><g transform="translate(26.682 21.993)"><path d="M304,278.5v29.35a5.336,5.336,0,1,0,10.673,0V294.505a5.336,5.336,0,0,1,10.673,0v21.346a5.336,5.336,0,0,0,10.673,0V278.5Z" transform="translate(-229.291 -211.791)" fill="#ffa69e"/><path d="M108.963,87.3A29.126,29.126,0,0,0,88,78.5H80v2.668a29.385,29.385,0,0,0,29.35,29.35Z" transform="translate(-80 -78.496)" fill="#ffa69e"/></g><path d="M165.428,134.906H146.75V70.225h-2.738a11.787,11.787,0,0,0,2.738-7.463c0-6.859-5.985-12.439-13.341-12.439a14.162,14.162,0,0,0-3.055.361,11.566,11.566,0,0,0,.387-2.848c0-6.859-5.985-12.439-13.341-12.439a14.161,14.161,0,0,0-3.055.361,11.566,11.566,0,0,0,.387-2.848c0-6.859-5.985-12.439-13.341-12.439a13.174,13.174,0,0,0-12.973,9.647A21.727,21.727,0,0,0,75.59,23.257,41.767,41.767,0,0,1,84.8,4.611L80.63,1.5A46.6,46.6,0,0,0,70.187,23.048C59.285,23.926,50.7,32.471,50.7,42.86c0,10.973,9.576,19.9,21.346,19.9s21.346-8.928,21.346-19.9c0-.022,0-.045,0-.067a13.815,13.815,0,0,0,8.007,2.555,14.161,14.161,0,0,0,3.055-.361,11.566,11.566,0,0,0-.387,2.848c0,6.859,5.985,12.439,13.341,12.439a14.161,14.161,0,0,0,3.055-.361,11.565,11.565,0,0,0-.387,2.848,11.787,11.787,0,0,0,2.738,7.463H30.159L54.3,55.217a31.011,31.011,0,0,1-7.492-1.323L18.677,71.382v63.524H0v4.975H9.053l8.311,14.926h130.7l8.311-14.926h9.053ZM72.041,57.786c-8.829,0-16.009-6.694-16.009-14.926,0-7.431,5.859-13.593,13.493-14.722-.083,1.092-.152,2.187-.152,3.286V35.4h5.336V31.424c0-1.085.061-2.167.149-3.244,7.487,1.246,13.192,7.346,13.192,14.68C88.05,51.092,80.87,57.786,72.041,57.786ZM93.387,32.909a8.024,8.024,0,0,1,16.009,0,8.024,8.024,0,0,1-16.009,0ZM109.4,47.836a8.024,8.024,0,0,1,16.009,0,8.024,8.024,0,0,1-16.009,0ZM125.4,62.762a8.024,8.024,0,1,1,8,7.463A7.758,7.758,0,0,1,125.4,62.762ZM24.014,100.078h77.377V95.1H24.014V90.127H34.686V85.152H24.014V75.2h117.4v9.951H40.023v4.975H141.414v44.779H24.014Zm120.808,49.755H20.606l-5.542-9.951h135.3Z" transform="translate(0 0)"/></g></svg>